<?xml version="1.0" encoding="utf-8"?>
<!-- Generator: Adobe Illustrator 22.1.0, SVG Export Plug-In . SVG Version: 6.00 Build 0)  -->
<svg version="1.1" id="Layer_1" xmlns="http://www.w3.org/2000/svg" xmlns:xlink="http://www.w3.org/1999/xlink" x="0px" y="0px"
	 viewBox="0 0 138 128" style="enable-background:new 0 0 138 128;" xml:space="preserve">
<style type="text/css">
	.st0{fill:#807037;}
	.st1{fill:#F3C848;}
</style>
<title>xs_logo</title>
<path class="st0" d="M130.1,38.9c0-3.8-0.5-7.2-1.4-10.5c-0.9-3.2-2.2-6-3.9-8.4c-1.7-2.4-3.7-4.2-6-5.5c-2.4-1.3-5-2-7.8-2
	c-0.9,0-1.6,0.1-2.3,0.4c-0.7,0.3-1,0.9-1,1.8c0,0.7,0.2,1.2,0.7,1.6c0.4,0.4,1,0.6,1.7,0.6h1.1c2.2,0,4.3,0.6,6.1,1.7
	c1.8,1.1,3.3,2.7,4.6,4.7s2.3,4.4,2.9,7.1c0.7,2.8,1,5.7,1,8.9c0,5.5-1,11.2-3,17.2s-4.9,12.1-8.7,18.1c-3.8,6.1-8.4,12.1-13.8,18
	s-11.5,11.5-18.2,16.8c0.2-2.9,0.4-5.8,0.5-8.7c0.1-2.8,0.2-5.6,0.2-8.3c0-9.5-0.8-18.2-2.4-26s-4-14.5-7.3-20
	c-3.2-5.4-7.4-9.7-12.4-12.7c-5.1-3-11.1-4.6-18.1-4.6c-5.4,0-10.2,0.8-14.3,2.3c-4.1,1.5-7.6,3.6-10.4,6.1
	c-2.8,2.5-4.9,5.4-6.4,8.6c-1.4,3.2-2.1,6.5-2.1,9.8c0,3,0.5,5.7,1.6,8.2s2.5,4.6,4.3,6.4s4,3.2,6.5,4.1c2.5,1,5.2,1.5,8.1,1.5
	c2.4,0,4.5-0.3,6.4-0.8s3.6-1.1,5-1.8c1.4-0.6,2.4-1.2,3.2-1.8c0.8-0.6,1.2-0.9,1.3-1c0.5-0.4,0.8-0.9,0.8-1.7
	c0-0.6-0.2-1.1-0.6-1.5c-0.4-0.4-0.9-0.6-1.5-0.6c-0.2,0-0.5,0-0.7,0.1c-0.3,0.1-0.5,0.2-0.7,0.4c-0.1,0.1-0.4,0.3-1.1,0.8
	c-0.6,0.4-1.5,0.9-2.6,1.5c-1.1,0.5-2.5,1-4.1,1.4c-1.6,0.4-3.4,0.6-5.3,0.6c-2.3,0-4.4-0.4-6.4-1.1c-2-0.7-3.7-1.8-5.1-3.1
	c-1.5-1.4-2.6-3-3.4-5c-0.8-2-1.2-4.2-1.2-6.7c0-2.8,0.6-5.5,1.9-8.2c1.2-2.7,3.1-5.1,5.5-7.2s5.5-3.8,9.1-5.1
	C34,34,38.2,33.4,43,33.4c6.4,0,11.8,1.5,16.4,4.4c4.5,3,8.2,7.1,11.1,12.3c2.9,5.3,5,11.5,6.3,18.7c1.3,7.2,2,15,1.9,23.5
	c0,1.1,0,2.4-0.1,3.8s-0.1,2.9-0.2,4.4s-0.2,3-0.3,4.5s-0.2,2.9-0.3,4.1c-0.1,1.2-0.1,2.3-0.2,3.1c-0.1,0.9-0.1,1.4-0.1,1.7
	c0,0.7,0.2,1.2,0.5,1.7s0.9,0.7,1.6,0.7c0.4,0,0.8-0.1,1.1-0.3c0.3-0.2,0.6-0.4,0.8-0.5c7.9-6.2,15-12.5,21.1-18.9
	c6.1-6.5,11.2-13,15.3-19.5c4.1-6.5,7.2-13,9.4-19.5C129.1,51.3,130.1,45,130.1,38.9z"/>
<rect x="43.7" y="107.9" class="st1" width="22" height="7"/>
</svg>
